<svg width="18" height="18" viewBox="0 0 18 18" fill="none" xmlns="http://www.w3.org/2000/svg">
<g clip-path="url(#clip0_12_43)">
<path d="M5.5 1C2.5 1 2 3 2 5V6C2 7.3 1.5 8 0.5 8.4V9.6C1.5 10 2 10.7 2 12V13C2 15 2.5 17 5.5 17V15.5C4 15.5 3.7 14.4 3.7 13V12C3.7 10.5 3.3 9.5 2.3 9C3.3 8.5 3.7 7.5 3.7 6V5C3.7 3.6 4 2.5 5.5 2.5V1Z" fill="white"/>
<path d="M12.5 1C15.5 1 16 3 16 5V6C16 7.3 16.5 8 17.5 8.4V9.6C16.5 10 16 10.7 16 12V13C16 15 15.5 17 12.5 17V15.5C14 15.5 14.3 14.4 14.3 13V12C14.3 10.5 14.7 9.5 15.7 9C14.7 8.5 14.3 7.5 14.3 6V5C14.3 3.6 14 2.5 12.5 2.5V1Z" fill="white"/>
<g clip-path="url(#clip1_12_43)">
<path d="M9 10C9.55228 10 10 9.55228 10 9C10 8.44772 9.55228 8 9 8C8.44772 8 8 8.44772 8 9C8 9.55228 8.44772 10 9 10Z" fill="white"/>
</g>
</g>
<defs>
<clipPath id="clip0_12_43">
<rect width="18" height="18" fill="white"/>
</clipPath>
<clipPath id="clip1_12_43">
<rect width="2" height="2" fill="white" transform="translate(8 8)"/>
</clipPath>
</defs>
</svg>
