<?xml version="1.0" standalone="no"?><!DOCTYPE svg PUBLIC "-//W3C//DTD SVG 1.1//EN" "http://www.w3.org/Graphics/SVG/1.1/DTD/svg11.dtd"><svg class="icon" width="200px" height="200.00px" viewBox="0 0 1024 1024" version="1.1" xmlns="http://www.w3.org/2000/svg"><path d="M512 51.2c-254.1568 0-460.8 206.6432-460.8 460.8s206.6432 460.8 460.8 460.8 460.8-206.6432 460.8-460.8-206.6432-460.8-460.8-460.8z" fill="#FFA725" /><path d="M573.952 350.0032c-29.5424 0-53.2992-21.6064-53.2992-52.5824 0-31.6416 23.7568-52.5312 53.248-52.5312 29.5424 0 53.2992 21.6064 53.2992 52.5312 0 31.744-23.7568 52.5824-53.248 52.5824zM583.9872 681.216c-34.56 51.8144-69.8368 92.16-129.5872 92.16-40.3456-6.5024-57.6-35.9936-48.2304-65.536l76.288-253.44a12.0832 12.0832 0 0 0-7.168-15.104c-5.7856-2.2016-16.5888 5.0176-26.624 15.872L403.2512 512c-1.4848-9.3696 0-24.4736 0-30.976 34.56-51.8144 92.16-93.5936 130.304-93.5936 36.7104 3.584 54.016 33.1264 47.5136 65.536l-77.056 254.8736c-0.7168 5.7856 2.2016 11.52 7.2192 13.6704 5.7344 2.1504 17.2544-5.0176 27.3408-15.872l46.08-55.3984c1.4336 8.6528-0.7168 25.1904-0.7168 30.976z" fill="#FFFFFF" /></svg>
